<svg xmlns="http://www.w3.org/2000/svg" height="40" viewBox="0 -960 960 960" width="40"><path d="M239.333-400.333h481.334V-467H239.333v66.667Zm0-127h481.334V-594H239.333v66.667Zm0-128h481.334V-722H239.333v66.667ZM910-50.001 748.666-211.334h-592q-43.824 0-74.912-31.087-31.087-31.087-31.087-74.912v-487.001q0-44.099 31.087-75.382 31.088-31.283 74.912-31.283h646.668q44.099 0 75.382 31.283Q910-848.433 910-804.334v754.333ZM156.666-317.333v-487.001 487.001Zm621.334 0 25.334 30.335v-517.336H156.666v487.001H778Z"/></svg>