<svg xmlns="http://www.w3.org/2000/svg" height="40" viewBox="0 -960 960 960" width="40"><path d="M480.201-478q34.132 0 58.299-24.034 24.166-24.034 24.166-58.167 0-34.132-24.172-58.299-24.173-24.166-58.5-24.166t-58.16 24.172Q398-594.321 398-559.994t24.034 58.16Q446.068-478 480.201-478ZM480-190.666Q603.667-302 663.5-387.446q59.834-85.446 59.834-168.221 0-108.333-70.897-178.5-70.896-70.167-172.472-70.167-101.576 0-172.438 70.167-70.861 70.167-70.861 178.5 0 82.961 60.834 168.148 60.833 85.186 182.5 196.853Zm0 140.332q-176.333-145.333-262.833-265.5-86.5-120.166-86.5-239.833 0-161.052 105.11-258.192Q340.888-911 480-911q138.827 0 244.413 97.141Q830-716.719 830-555.667 830-436 743.166-315.834 656.333-195.667 480-50.334ZM480-560Z"/></svg>